<mxfile host="app.diagrams.net" agent="Mozilla/5.0 (Windows NT 10.0; Win64; x64) AppleWebKit/537.36 (KHTML, like Gecko) Chrome/132.0.0.0 Safari/537.36" version="26.0.7">
  <diagram name="Pagina-1" id="84PuDwkdYNzk4Ycknx7K">
    <mxGraphModel dx="3500" dy="1740" grid="1" gridSize="10" guides="1" tooltips="1" connect="1" arrows="1" fold="1" page="1" pageScale="1" pageWidth="827" pageHeight="1169" math="0" shadow="0">
      <root>
        <mxCell id="0" />
        <mxCell id="1" parent="0" />
        <mxCell id="pOCkdm43ggBx2FiDlGRL-4" value="" style="edgeStyle=orthogonalEdgeStyle;rounded=0;orthogonalLoop=1;jettySize=auto;html=1;" edge="1" parent="1" source="pOCkdm43ggBx2FiDlGRL-2" target="pOCkdm43ggBx2FiDlGRL-3">
          <mxGeometry relative="1" as="geometry" />
        </mxCell>
        <mxCell id="pOCkdm43ggBx2FiDlGRL-2" value="START" style="ellipse;whiteSpace=wrap;html=1;" vertex="1" parent="1">
          <mxGeometry x="354" y="50" width="120" height="80" as="geometry" />
        </mxCell>
        <mxCell id="pOCkdm43ggBx2FiDlGRL-6" value="" style="edgeStyle=orthogonalEdgeStyle;rounded=0;orthogonalLoop=1;jettySize=auto;html=1;" edge="1" parent="1" source="pOCkdm43ggBx2FiDlGRL-3" target="pOCkdm43ggBx2FiDlGRL-5">
          <mxGeometry relative="1" as="geometry" />
        </mxCell>
        <mxCell id="pOCkdm43ggBx2FiDlGRL-3" value="READ POSTI" style="shape=parallelogram;perimeter=parallelogramPerimeter;whiteSpace=wrap;html=1;fixedSize=1;" vertex="1" parent="1">
          <mxGeometry x="354" y="220" width="120" height="60" as="geometry" />
        </mxCell>
        <mxCell id="pOCkdm43ggBx2FiDlGRL-8" value="" style="edgeStyle=orthogonalEdgeStyle;rounded=0;orthogonalLoop=1;jettySize=auto;html=1;" edge="1" parent="1" source="pOCkdm43ggBx2FiDlGRL-5" target="pOCkdm43ggBx2FiDlGRL-7">
          <mxGeometry relative="1" as="geometry" />
        </mxCell>
        <mxCell id="pOCkdm43ggBx2FiDlGRL-5" value="POSTI = N" style="whiteSpace=wrap;html=1;" vertex="1" parent="1">
          <mxGeometry x="354" y="360" width="120" height="60" as="geometry" />
        </mxCell>
        <mxCell id="pOCkdm43ggBx2FiDlGRL-10" value="" style="edgeStyle=orthogonalEdgeStyle;rounded=0;orthogonalLoop=1;jettySize=auto;html=1;" edge="1" parent="1" source="pOCkdm43ggBx2FiDlGRL-7" target="pOCkdm43ggBx2FiDlGRL-9">
          <mxGeometry relative="1" as="geometry" />
        </mxCell>
        <mxCell id="pOCkdm43ggBx2FiDlGRL-7" value="READ OPZIONE" style="shape=parallelogram;perimeter=parallelogramPerimeter;whiteSpace=wrap;html=1;fixedSize=1;" vertex="1" parent="1">
          <mxGeometry x="354" y="500" width="120" height="60" as="geometry" />
        </mxCell>
        <mxCell id="pOCkdm43ggBx2FiDlGRL-12" value="" style="edgeStyle=orthogonalEdgeStyle;rounded=0;orthogonalLoop=1;jettySize=auto;html=1;" edge="1" parent="1" source="pOCkdm43ggBx2FiDlGRL-9" target="pOCkdm43ggBx2FiDlGRL-11">
          <mxGeometry relative="1" as="geometry">
            <Array as="points">
              <mxPoint x="780" y="670" />
            </Array>
          </mxGeometry>
        </mxCell>
        <mxCell id="pOCkdm43ggBx2FiDlGRL-13" value="TRUE" style="edgeLabel;html=1;align=center;verticalAlign=middle;resizable=0;points=[];" vertex="1" connectable="0" parent="pOCkdm43ggBx2FiDlGRL-12">
          <mxGeometry x="-0.1083" y="4" relative="1" as="geometry">
            <mxPoint as="offset" />
          </mxGeometry>
        </mxCell>
        <mxCell id="pOCkdm43ggBx2FiDlGRL-9" value="OPZIONE == &quot;INGRESSO&quot;" style="rhombus;whiteSpace=wrap;html=1;" vertex="1" parent="1">
          <mxGeometry x="270" y="630" width="290" height="80" as="geometry" />
        </mxCell>
        <mxCell id="pOCkdm43ggBx2FiDlGRL-15" value="" style="edgeStyle=orthogonalEdgeStyle;rounded=0;orthogonalLoop=1;jettySize=auto;html=1;" edge="1" parent="1" source="pOCkdm43ggBx2FiDlGRL-11" target="pOCkdm43ggBx2FiDlGRL-14">
          <mxGeometry relative="1" as="geometry" />
        </mxCell>
        <mxCell id="pOCkdm43ggBx2FiDlGRL-16" value="TRUE" style="edgeLabel;html=1;align=center;verticalAlign=middle;resizable=0;points=[];" vertex="1" connectable="0" parent="pOCkdm43ggBx2FiDlGRL-15">
          <mxGeometry x="0.13" y="-2" relative="1" as="geometry">
            <mxPoint as="offset" />
          </mxGeometry>
        </mxCell>
        <mxCell id="pOCkdm43ggBx2FiDlGRL-18" value="" style="edgeStyle=orthogonalEdgeStyle;rounded=0;orthogonalLoop=1;jettySize=auto;html=1;" edge="1" parent="1" source="pOCkdm43ggBx2FiDlGRL-11" target="pOCkdm43ggBx2FiDlGRL-17">
          <mxGeometry relative="1" as="geometry" />
        </mxCell>
        <mxCell id="pOCkdm43ggBx2FiDlGRL-35" value="FALSE" style="edgeLabel;html=1;align=center;verticalAlign=middle;resizable=0;points=[];" vertex="1" connectable="0" parent="pOCkdm43ggBx2FiDlGRL-18">
          <mxGeometry x="-0.5655" y="-1" relative="1" as="geometry">
            <mxPoint x="-1" as="offset" />
          </mxGeometry>
        </mxCell>
        <mxCell id="pOCkdm43ggBx2FiDlGRL-11" value="LIBERI&amp;nbsp; &amp;gt; 0" style="rhombus;whiteSpace=wrap;html=1;" vertex="1" parent="1">
          <mxGeometry x="640" y="710" width="290" height="80" as="geometry" />
        </mxCell>
        <mxCell id="pOCkdm43ggBx2FiDlGRL-14" value="LIBERI = LIBERI - 1" style="whiteSpace=wrap;html=1;" vertex="1" parent="1">
          <mxGeometry x="980" y="830" width="120" height="60" as="geometry" />
        </mxCell>
        <mxCell id="pOCkdm43ggBx2FiDlGRL-20" value="" style="edgeStyle=orthogonalEdgeStyle;rounded=0;orthogonalLoop=1;jettySize=auto;html=1;" edge="1" parent="1" source="pOCkdm43ggBx2FiDlGRL-17" target="pOCkdm43ggBx2FiDlGRL-19">
          <mxGeometry relative="1" as="geometry">
            <Array as="points">
              <mxPoint x="560" y="1010" />
            </Array>
          </mxGeometry>
        </mxCell>
        <mxCell id="pOCkdm43ggBx2FiDlGRL-17" value="WRITE &quot;NON CI SONO POSTI DISPONIBILI&quot;" style="whiteSpace=wrap;html=1;" vertex="1" parent="1">
          <mxGeometry x="490" y="830" width="120" height="60" as="geometry" />
        </mxCell>
        <mxCell id="pOCkdm43ggBx2FiDlGRL-19" value="" style="ellipse;whiteSpace=wrap;html=1;" vertex="1" parent="1">
          <mxGeometry x="807" y="1000" width="20" height="20" as="geometry" />
        </mxCell>
        <mxCell id="pOCkdm43ggBx2FiDlGRL-21" value="" style="endArrow=classic;html=1;rounded=0;exitX=0.5;exitY=1;exitDx=0;exitDy=0;entryX=1;entryY=1;entryDx=0;entryDy=0;" edge="1" parent="1" source="pOCkdm43ggBx2FiDlGRL-14" target="pOCkdm43ggBx2FiDlGRL-19">
          <mxGeometry width="50" height="50" relative="1" as="geometry">
            <mxPoint x="680" y="840" as="sourcePoint" />
            <mxPoint x="730" y="790" as="targetPoint" />
            <Array as="points">
              <mxPoint x="1040" y="1020" />
            </Array>
          </mxGeometry>
        </mxCell>
        <mxCell id="pOCkdm43ggBx2FiDlGRL-22" value="" style="endArrow=classic;html=1;rounded=0;exitX=0.5;exitY=1;exitDx=0;exitDy=0;entryX=1;entryY=0.5;entryDx=0;entryDy=0;" edge="1" parent="1" source="pOCkdm43ggBx2FiDlGRL-19" target="pOCkdm43ggBx2FiDlGRL-7">
          <mxGeometry width="50" height="50" relative="1" as="geometry">
            <mxPoint x="600" y="890" as="sourcePoint" />
            <mxPoint x="650" y="840" as="targetPoint" />
            <Array as="points">
              <mxPoint x="817" y="1090" />
              <mxPoint x="1220" y="1100" />
              <mxPoint x="1200" y="530" />
            </Array>
          </mxGeometry>
        </mxCell>
        <mxCell id="pOCkdm43ggBx2FiDlGRL-23" value="" style="endArrow=classic;html=1;rounded=0;exitX=0.5;exitY=1;exitDx=0;exitDy=0;" edge="1" parent="1" source="pOCkdm43ggBx2FiDlGRL-9">
          <mxGeometry width="50" height="50" relative="1" as="geometry">
            <mxPoint x="550" y="1050" as="sourcePoint" />
            <mxPoint x="410" y="1290" as="targetPoint" />
          </mxGeometry>
        </mxCell>
        <mxCell id="pOCkdm43ggBx2FiDlGRL-24" value="FALSE" style="edgeLabel;html=1;align=center;verticalAlign=middle;resizable=0;points=[];" vertex="1" connectable="0" parent="pOCkdm43ggBx2FiDlGRL-23">
          <mxGeometry x="0.0206" y="-5" relative="1" as="geometry">
            <mxPoint y="1" as="offset" />
          </mxGeometry>
        </mxCell>
        <mxCell id="pOCkdm43ggBx2FiDlGRL-27" value="" style="edgeStyle=orthogonalEdgeStyle;rounded=0;orthogonalLoop=1;jettySize=auto;html=1;" edge="1" parent="1" source="pOCkdm43ggBx2FiDlGRL-25" target="pOCkdm43ggBx2FiDlGRL-26">
          <mxGeometry relative="1" as="geometry" />
        </mxCell>
        <mxCell id="pOCkdm43ggBx2FiDlGRL-28" value="TRUE" style="edgeLabel;html=1;align=center;verticalAlign=middle;resizable=0;points=[];" vertex="1" connectable="0" parent="pOCkdm43ggBx2FiDlGRL-27">
          <mxGeometry x="-0.1461" y="-4" relative="1" as="geometry">
            <mxPoint as="offset" />
          </mxGeometry>
        </mxCell>
        <mxCell id="pOCkdm43ggBx2FiDlGRL-41" value="" style="edgeStyle=orthogonalEdgeStyle;rounded=0;orthogonalLoop=1;jettySize=auto;html=1;" edge="1" parent="1" source="pOCkdm43ggBx2FiDlGRL-25" target="pOCkdm43ggBx2FiDlGRL-40">
          <mxGeometry relative="1" as="geometry" />
        </mxCell>
        <mxCell id="pOCkdm43ggBx2FiDlGRL-25" value="OPZIONE == &quot;USCITA&quot;" style="rhombus;whiteSpace=wrap;html=1;" vertex="1" parent="1">
          <mxGeometry x="210" y="1290" width="410" height="80" as="geometry" />
        </mxCell>
        <mxCell id="pOCkdm43ggBx2FiDlGRL-30" value="" style="edgeStyle=orthogonalEdgeStyle;rounded=0;orthogonalLoop=1;jettySize=auto;html=1;" edge="1" parent="1" source="pOCkdm43ggBx2FiDlGRL-26" target="pOCkdm43ggBx2FiDlGRL-29">
          <mxGeometry relative="1" as="geometry" />
        </mxCell>
        <mxCell id="pOCkdm43ggBx2FiDlGRL-31" value="TRUE" style="edgeLabel;html=1;align=center;verticalAlign=middle;resizable=0;points=[];" vertex="1" connectable="0" parent="pOCkdm43ggBx2FiDlGRL-30">
          <mxGeometry x="-0.3179" y="2" relative="1" as="geometry">
            <mxPoint x="-1" as="offset" />
          </mxGeometry>
        </mxCell>
        <mxCell id="pOCkdm43ggBx2FiDlGRL-33" value="" style="edgeStyle=orthogonalEdgeStyle;rounded=0;orthogonalLoop=1;jettySize=auto;html=1;" edge="1" parent="1" source="pOCkdm43ggBx2FiDlGRL-26" target="pOCkdm43ggBx2FiDlGRL-32">
          <mxGeometry relative="1" as="geometry" />
        </mxCell>
        <mxCell id="pOCkdm43ggBx2FiDlGRL-34" value="FALSE" style="edgeLabel;html=1;align=center;verticalAlign=middle;resizable=0;points=[];" vertex="1" connectable="0" parent="pOCkdm43ggBx2FiDlGRL-33">
          <mxGeometry x="-0.2321" y="2" relative="1" as="geometry">
            <mxPoint x="-1" as="offset" />
          </mxGeometry>
        </mxCell>
        <mxCell id="pOCkdm43ggBx2FiDlGRL-26" value="LIBERI &amp;lt;&amp;nbsp; N" style="rhombus;whiteSpace=wrap;html=1;" vertex="1" parent="1">
          <mxGeometry x="700" y="1390" width="410" height="80" as="geometry" />
        </mxCell>
        <mxCell id="pOCkdm43ggBx2FiDlGRL-29" value="LIBERI = LIBERI+1" style="whiteSpace=wrap;html=1;" vertex="1" parent="1">
          <mxGeometry x="1210" y="1550" width="120" height="60" as="geometry" />
        </mxCell>
        <mxCell id="pOCkdm43ggBx2FiDlGRL-37" value="" style="edgeStyle=orthogonalEdgeStyle;rounded=0;orthogonalLoop=1;jettySize=auto;html=1;" edge="1" parent="1" source="pOCkdm43ggBx2FiDlGRL-32" target="pOCkdm43ggBx2FiDlGRL-36">
          <mxGeometry relative="1" as="geometry">
            <Array as="points">
              <mxPoint x="600" y="1700" />
            </Array>
          </mxGeometry>
        </mxCell>
        <mxCell id="pOCkdm43ggBx2FiDlGRL-32" value="WRITE &quot;TUTTI I POSTI SONO DISPONIBILI&quot;" style="whiteSpace=wrap;html=1;" vertex="1" parent="1">
          <mxGeometry x="540" y="1540" width="120" height="60" as="geometry" />
        </mxCell>
        <mxCell id="pOCkdm43ggBx2FiDlGRL-36" value="" style="ellipse;whiteSpace=wrap;html=1;" vertex="1" parent="1">
          <mxGeometry x="940" y="1690" width="20" height="20" as="geometry" />
        </mxCell>
        <mxCell id="pOCkdm43ggBx2FiDlGRL-38" value="" style="endArrow=classic;html=1;rounded=0;exitX=0.5;exitY=1;exitDx=0;exitDy=0;entryX=1;entryY=0.5;entryDx=0;entryDy=0;" edge="1" parent="1" source="pOCkdm43ggBx2FiDlGRL-29" target="pOCkdm43ggBx2FiDlGRL-36">
          <mxGeometry width="50" height="50" relative="1" as="geometry">
            <mxPoint x="590" y="1750" as="sourcePoint" />
            <mxPoint x="640" y="1700" as="targetPoint" />
            <Array as="points">
              <mxPoint x="1270" y="1700" />
            </Array>
          </mxGeometry>
        </mxCell>
        <mxCell id="pOCkdm43ggBx2FiDlGRL-39" value="" style="endArrow=classic;html=1;rounded=0;exitX=0.5;exitY=1;exitDx=0;exitDy=0;entryX=1;entryY=0;entryDx=0;entryDy=0;" edge="1" parent="1" source="pOCkdm43ggBx2FiDlGRL-36" target="pOCkdm43ggBx2FiDlGRL-7">
          <mxGeometry width="50" height="50" relative="1" as="geometry">
            <mxPoint x="590" y="1750" as="sourcePoint" />
            <mxPoint x="640" y="1700" as="targetPoint" />
            <Array as="points">
              <mxPoint x="950" y="1770" />
              <mxPoint x="1400" y="1770" />
              <mxPoint x="1350" y="490" />
            </Array>
          </mxGeometry>
        </mxCell>
        <mxCell id="pOCkdm43ggBx2FiDlGRL-45" value="" style="edgeStyle=orthogonalEdgeStyle;rounded=0;orthogonalLoop=1;jettySize=auto;html=1;" edge="1" parent="1" source="pOCkdm43ggBx2FiDlGRL-40" target="pOCkdm43ggBx2FiDlGRL-44">
          <mxGeometry relative="1" as="geometry" />
        </mxCell>
        <mxCell id="pOCkdm43ggBx2FiDlGRL-46" value="TRUE" style="edgeLabel;html=1;align=center;verticalAlign=middle;resizable=0;points=[];" vertex="1" connectable="0" parent="pOCkdm43ggBx2FiDlGRL-45">
          <mxGeometry x="0.2993" relative="1" as="geometry">
            <mxPoint x="-1" as="offset" />
          </mxGeometry>
        </mxCell>
        <mxCell id="pOCkdm43ggBx2FiDlGRL-49" value="FALSE" style="edgeStyle=orthogonalEdgeStyle;rounded=0;orthogonalLoop=1;jettySize=auto;html=1;" edge="1" parent="1" source="pOCkdm43ggBx2FiDlGRL-40" target="pOCkdm43ggBx2FiDlGRL-48">
          <mxGeometry relative="1" as="geometry" />
        </mxCell>
        <mxCell id="pOCkdm43ggBx2FiDlGRL-40" value="OPZIONE == &quot;STATO&quot;" style="rhombus;whiteSpace=wrap;html=1;" vertex="1" parent="1">
          <mxGeometry x="210" y="1970" width="410" height="80" as="geometry" />
        </mxCell>
        <mxCell id="pOCkdm43ggBx2FiDlGRL-44" value="WRITE LIBERI&lt;div&gt;WRITE N - LIBERI&lt;/div&gt;" style="shape=parallelogram;perimeter=parallelogramPerimeter;whiteSpace=wrap;html=1;fixedSize=1;" vertex="1" parent="1">
          <mxGeometry x="845" y="1980" width="155" height="60" as="geometry" />
        </mxCell>
        <mxCell id="pOCkdm43ggBx2FiDlGRL-47" value="" style="endArrow=classic;html=1;rounded=0;exitX=1;exitY=0.5;exitDx=0;exitDy=0;entryX=0.75;entryY=0;entryDx=0;entryDy=0;" edge="1" parent="1" source="pOCkdm43ggBx2FiDlGRL-44" target="pOCkdm43ggBx2FiDlGRL-7">
          <mxGeometry width="50" height="50" relative="1" as="geometry">
            <mxPoint x="600" y="2020" as="sourcePoint" />
            <mxPoint x="650" y="1970" as="targetPoint" />
            <Array as="points">
              <mxPoint x="1470" y="2000" />
              <mxPoint x="1420" y="440" />
              <mxPoint x="500" y="460" />
            </Array>
          </mxGeometry>
        </mxCell>
        <mxCell id="pOCkdm43ggBx2FiDlGRL-55" value="" style="edgeStyle=orthogonalEdgeStyle;rounded=0;orthogonalLoop=1;jettySize=auto;html=1;" edge="1" parent="1" source="pOCkdm43ggBx2FiDlGRL-48" target="pOCkdm43ggBx2FiDlGRL-54">
          <mxGeometry relative="1" as="geometry" />
        </mxCell>
        <mxCell id="pOCkdm43ggBx2FiDlGRL-56" value="TRUE" style="edgeLabel;html=1;align=center;verticalAlign=middle;resizable=0;points=[];" vertex="1" connectable="0" parent="pOCkdm43ggBx2FiDlGRL-55">
          <mxGeometry x="-0.2099" y="3" relative="1" as="geometry">
            <mxPoint as="offset" />
          </mxGeometry>
        </mxCell>
        <mxCell id="pOCkdm43ggBx2FiDlGRL-48" value="OPZIONE == &quot;ESCI&quot;" style="rhombus;whiteSpace=wrap;html=1;" vertex="1" parent="1">
          <mxGeometry x="209" y="2190" width="410" height="80" as="geometry" />
        </mxCell>
        <mxCell id="pOCkdm43ggBx2FiDlGRL-50" value="" style="endArrow=classic;html=1;rounded=0;exitX=0;exitY=0.5;exitDx=0;exitDy=0;entryX=0;entryY=0.5;entryDx=0;entryDy=0;" edge="1" parent="1" source="pOCkdm43ggBx2FiDlGRL-48" target="pOCkdm43ggBx2FiDlGRL-7">
          <mxGeometry width="50" height="50" relative="1" as="geometry">
            <mxPoint x="530" y="2020" as="sourcePoint" />
            <mxPoint x="580" y="1970" as="targetPoint" />
            <Array as="points">
              <mxPoint x="90" y="2230" />
              <mxPoint x="120" y="550" />
            </Array>
          </mxGeometry>
        </mxCell>
        <mxCell id="pOCkdm43ggBx2FiDlGRL-51" value="FALSE" style="edgeLabel;html=1;align=center;verticalAlign=middle;resizable=0;points=[];" vertex="1" connectable="0" parent="pOCkdm43ggBx2FiDlGRL-50">
          <mxGeometry x="-0.7212" y="3" relative="1" as="geometry">
            <mxPoint y="-1" as="offset" />
          </mxGeometry>
        </mxCell>
        <mxCell id="pOCkdm43ggBx2FiDlGRL-54" value="END" style="ellipse;whiteSpace=wrap;html=1;" vertex="1" parent="1">
          <mxGeometry x="340" y="2350" width="150" height="80" as="geometry" />
        </mxCell>
      </root>
    </mxGraphModel>
  </diagram>
</mxfile>
